<?xml version="1.0" encoding="utf-8"?>
<!-- Generator: Adobe Illustrator 25.0.0, SVG Export Plug-In . SVG Version: 6.00 Build 0)  -->
<svg version="1.1" id="Layer_1" xmlns="http://www.w3.org/2000/svg" xmlns:xlink="http://www.w3.org/1999/xlink" x="0px" y="0px"
	 viewBox="0 0 202.2 43.9" style="enable-background:new 0 0 202.2 43.9;" xml:space="preserve">
<style type="text/css">
	.st0{fill:#526DC4;}
	.st1{fill:#9CABDC;}
	.st2{fill:#0222BA;}
</style>
<path class="st0" d="M32.1,0.8c8.7,0,15.7,7,15.7,15.7s-7,15.7-15.7,15.7V0.8z"/>
<rect x="0.8" y="0.8" class="st1" width="31.3" height="31.4"/>
<path class="st2" d="M32.1,32.2c-8.7,0-15.7-7-15.7-15.7s7-15.7,15.7-15.7V32.2z"/>
<g>
	<path class="st2" d="M64.7,26.9h-4.5V9.3h-5.8V5.5h16.2v3.8h-5.8L64.7,26.9L64.7,26.9z"/>
	<path class="st2" d="M78.4,27.2c-2.6,0-4.7-0.7-6.2-2.2S70,21.5,70,18.9c0-2.7,0.7-4.9,2.1-6.4s3.3-2.2,5.7-2.2
		c2.3,0,4.1,0.7,5.4,2s1.9,3.1,1.9,5.5V20H74.5c0,1.3,0.4,2.3,1.1,3s1.7,1.1,3,1.1c1,0,1.9-0.1,2.8-0.3c0.9-0.2,1.8-0.5,2.8-1v3.5
		c-0.8,0.4-1.6,0.7-2.5,0.9S79.6,27.2,78.4,27.2z M77.7,13.4c-0.9,0-1.7,0.3-2.2,0.9c-0.5,0.6-0.8,1.5-0.9,2.6h6.3
		c0-1.1-0.3-2-0.9-2.6C79.4,13.7,78.7,13.4,77.7,13.4z"/>
	<path class="st2" d="M97.8,10.3c0.6,0,1.1,0,1.5,0.1L99,14.6c-0.4-0.1-0.8-0.1-1.3-0.1c-1.4,0-2.5,0.4-3.3,1.1s-1.2,1.8-1.2,3.1V27
		h-4.5V10.6h3.4l0.7,2.8H93c0.5-0.9,1.2-1.7,2.1-2.2C95.9,10.5,96.8,10.3,97.8,10.3z"/>
	<path class="st2" d="M111.4,10.3c0.6,0,1.1,0,1.5,0.1l-0.3,4.2c-0.4-0.1-0.8-0.1-1.3-0.1c-1.4,0-2.5,0.4-3.3,1.1s-1.2,1.8-1.2,3.1
		V27h-4.5V10.6h3.4l0.7,2.8h0.2c0.5-0.9,1.2-1.7,2.1-2.2S110.4,10.3,111.4,10.3z"/>
	<path class="st2" d="M125,26.9l-0.9-2.2H124c-0.8,0.9-1.5,1.6-2.3,2s-1.8,0.5-3.1,0.5c-1.6,0-2.8-0.4-3.7-1.3s-1.4-2.2-1.4-3.8
		c0-1.7,0.6-3,1.8-3.8s3-1.3,5.5-1.4l2.8-0.1V16c0-1.7-0.8-2.5-2.5-2.5c-1.3,0-2.8,0.4-4.6,1.2l-1.5-3c1.9-1,4-1.5,6.3-1.5
		c2.2,0,3.9,0.5,5.1,1.4s1.8,2.4,1.8,4.4v10.9H125z M123.7,19.4l-1.7,0.1c-1.3,0-2.3,0.3-2.9,0.7s-1,1.1-1,2c0,1.3,0.7,1.9,2.2,1.9
		c1,0,1.9-0.3,2.5-0.9s0.9-1.4,0.9-2.4V19.4z"/>
	<g>
		<path class="st2" d="M146.8,21.4c0,1.8-0.7,3.2-2,4.2s-3.1,1.6-5.2,1.6c-2.6,0-4.6-0.3-6-0.9v-1.5c1.5,0.7,3.5,1,5.9,1
			c1.8,0,3.2-0.4,4.2-1.2c1-0.8,1.5-1.9,1.5-3.2c0-0.8-0.2-1.5-0.5-2s-0.9-1-1.7-1.5s-1.9-0.9-3.4-1.4c-2.2-0.8-3.7-1.6-4.5-2.4
			c-0.8-0.9-1.3-2-1.3-3.5c0-1.6,0.6-2.9,1.9-3.9c1.3-1,2.9-1.5,4.8-1.5c2,0,3.9,0.4,5.7,1.1l-0.5,1.3c-1.8-0.7-3.5-1.1-5.1-1.1
			s-2.8,0.4-3.8,1.1c-0.9,0.7-1.4,1.7-1.4,3c0,0.8,0.1,1.4,0.4,1.9c0.3,0.5,0.8,1,1.4,1.4c0.7,0.4,1.8,0.9,3.4,1.5
			c1.7,0.6,2.9,1.1,3.8,1.7c0.8,0.5,1.5,1.2,1.8,1.8C146.6,19.6,146.8,20.4,146.8,21.4z"/>
		<path class="st2" d="M163.7,26.9l-3.5-10.7c-0.2-0.7-0.5-1.8-0.9-3.2h-0.1l-0.3,1.1l-0.7,2.1l-3.5,10.6h-1.4L148.8,11h1.6l2.5,9.2
			c0.6,2.3,1,4,1.2,5h0.1c0.6-2.3,1-3.8,1.3-4.6l3.3-9.7h1.3l3.1,9.7c0.7,2.3,1.1,3.8,1.3,4.6h0.1c0.1-0.6,0.5-2.3,1.2-5.1l2.4-9.1
			h1.5l-4.3,15.9H163.7z"/>
		<path class="st2" d="M182.3,26.9l-0.4-2.5h-0.1c-0.8,1-1.6,1.8-2.5,2.2c-0.8,0.4-1.8,0.6-3,0.6c-1.6,0-2.8-0.4-3.6-1.2
			c-0.9-0.8-1.3-1.9-1.3-3.3c0-1.6,0.6-2.8,1.9-3.6c1.3-0.9,3.2-1.3,5.6-1.4l3-0.1v-1.1c0-1.5-0.3-2.7-0.9-3.4
			c-0.6-0.8-1.6-1.2-3-1.2c-1.5,0-3,0.4-4.6,1.2L173,12c1.7-0.8,3.5-1.2,5.2-1.2s3.1,0.5,3.9,1.4c0.9,0.9,1.3,2.3,1.3,4.2V27h-1.1
			V26.9z M176.5,25.9c1.7,0,3-0.5,4-1.5s1.5-2.3,1.5-4.1v-1.6l-2.8,0.1c-2.2,0.1-3.8,0.5-4.8,1c-1,0.6-1.4,1.5-1.4,2.8
			c0,1,0.3,1.8,0.9,2.3C174.5,25.6,175.4,25.9,176.5,25.9z"/>
		<path class="st2" d="M194.4,27.2c-2.5,0-4.2-0.9-5.4-2.8h-0.1v1.2c0,0.7,0.1,1.5,0.1,2.4v12.3h-1.5V11h1.2l0.3,2.3h0.1
			c1.1-1.7,2.8-2.6,5.2-2.6c2.1,0,3.8,0.7,4.9,2.1c1.1,1.4,1.7,3.5,1.7,6.2c0,2.6-0.6,4.6-1.8,6.1C198,26.5,196.4,27.2,194.4,27.2z
			 M194.3,26c1.6,0,2.9-0.6,3.8-1.8c0.9-1.2,1.3-2.9,1.3-5.1c0-4.7-1.7-7-5.1-7c-1.9,0-3.2,0.5-4.1,1.5c-0.9,1-1.3,2.7-1.3,5V19
			c0,2.5,0.4,4.3,1.3,5.3C191.1,25.4,192.4,26,194.3,26z"/>
	</g>
</g>
<g>
	<path class="st2" d="M96.1,35.6c0,0.7-0.2,1.2-0.7,1.6c-0.5,0.4-1.1,0.5-2,0.5h-0.8v2.6h-0.8v-6.7h1.7
		C95.3,33.7,96.1,34.3,96.1,35.6z M92.6,37.1h0.7c0.7,0,1.2-0.1,1.5-0.3s0.5-0.6,0.5-1.1c0-0.4-0.1-0.8-0.4-1s-0.7-0.3-1.4-0.3h-0.9
		C92.6,34.4,92.6,37.1,92.6,37.1z"/>
	<path class="st2" d="M101.7,37.9c0,0.8-0.2,1.5-0.6,1.9c-0.4,0.5-1,0.7-1.7,0.7c-0.4,0-0.8-0.1-1.2-0.3c-0.3-0.2-0.6-0.5-0.8-0.9
		c-0.2-0.4-0.3-0.9-0.3-1.4c0-0.8,0.2-1.5,0.6-1.9c0.4-0.5,1-0.7,1.7-0.7s1.3,0.2,1.7,0.7C101.5,36.4,101.7,37.1,101.7,37.9z
		 M97.9,37.9c0,0.6,0.1,1.1,0.4,1.5c0.3,0.3,0.6,0.5,1.1,0.5s0.9-0.2,1.1-0.5c0.3-0.3,0.4-0.8,0.4-1.5c0-0.6-0.1-1.1-0.4-1.5
		c-0.3-0.3-0.6-0.5-1.1-0.5s-0.9,0.2-1.1,0.5C98,36.7,97.9,37.2,97.9,37.9z"/>
	<path class="st2" d="M107.2,40.4l-0.9-2.9c-0.1-0.2-0.2-0.6-0.3-1.2l0,0c-0.1,0.5-0.2,0.9-0.3,1.2l-0.9,2.9h-0.9l-1.4-5h0.8
		c0.3,1.3,0.6,2.2,0.7,2.9c0.2,0.7,0.3,1.1,0.3,1.3l0,0c0-0.2,0.1-0.4,0.2-0.7s0.1-0.5,0.2-0.7l0.9-2.9h0.8l0.9,2.9
		c0.2,0.5,0.3,1,0.3,1.3l0,0c0-0.1,0-0.3,0.1-0.5s0.4-1.5,1-3.7h0.8l-1.4,5h-0.9V40.4z"/>
	<path class="st2" d="M112.5,40.5c-0.7,0-1.3-0.2-1.8-0.7c-0.4-0.5-0.6-1.1-0.6-1.9c0-0.8,0.2-1.5,0.6-1.9c0.4-0.5,0.9-0.7,1.6-0.7
		c0.6,0,1.1,0.2,1.5,0.6c0.4,0.4,0.5,1,0.5,1.6V38h-3.5c0,0.6,0.2,1,0.4,1.3c0.3,0.3,0.7,0.5,1.2,0.5s1.1-0.1,1.6-0.3v0.7
		c-0.3,0.1-0.5,0.2-0.8,0.3C113.1,40.4,112.8,40.5,112.5,40.5z M112.3,35.9c-0.4,0-0.7,0.1-1,0.4c-0.2,0.3-0.4,0.6-0.4,1.1h2.6
		c0-0.5-0.1-0.8-0.3-1.1C113,36,112.7,35.9,112.3,35.9z"/>
	<path class="st2" d="M117.9,35.3c0.2,0,0.4,0,0.6,0.1l-0.1,0.7c-0.2,0-0.4-0.1-0.5-0.1c-0.4,0-0.8,0.2-1,0.5
		c-0.3,0.3-0.4,0.7-0.4,1.2v2.7h-0.8v-5h0.6l0.1,0.9l0,0c0.2-0.3,0.4-0.6,0.7-0.8C117.3,35.4,117.6,35.3,117.9,35.3z"/>
	<path class="st2" d="M121.6,40.5c-0.7,0-1.3-0.2-1.8-0.7c-0.4-0.5-0.6-1.1-0.6-1.9c0-0.8,0.2-1.5,0.6-1.9c0.4-0.5,0.9-0.7,1.6-0.7
		c0.6,0,1.1,0.2,1.5,0.6c0.4,0.4,0.5,1,0.5,1.6V38H120c0,0.6,0.2,1,0.4,1.3c0.3,0.3,0.7,0.5,1.2,0.5s1.1-0.1,1.6-0.3v0.7
		c-0.3,0.1-0.5,0.2-0.8,0.3C122.2,40.4,121.9,40.5,121.6,40.5z M121.4,35.9c-0.4,0-0.7,0.1-1,0.4c-0.2,0.3-0.4,0.6-0.4,1.1h2.6
		c0-0.5-0.1-0.8-0.3-1.1C122.1,36,121.8,35.9,121.4,35.9z"/>
	<path class="st2" d="M128.1,39.7L128.1,39.7c-0.4,0.5-0.9,0.8-1.6,0.8s-1.2-0.2-1.5-0.7c-0.4-0.4-0.5-1.1-0.5-1.9
		c0-0.8,0.2-1.5,0.5-1.9c0.4-0.5,0.9-0.7,1.5-0.7c0.7,0,1.2,0.2,1.6,0.7h0.1v-0.4v-0.4v-2h0.8v7.1h-0.6L128.1,39.7z M126.6,39.8
		c0.5,0,0.9-0.1,1.1-0.4s0.4-0.7,0.4-1.4v-0.2c0-0.7-0.1-1.2-0.4-1.5c-0.2-0.3-0.6-0.5-1.1-0.5c-0.4,0-0.8,0.2-1,0.5
		s-0.4,0.8-0.4,1.5c0,0.6,0.1,1.1,0.4,1.5C125.8,39.7,126.2,39.8,126.6,39.8z"/>
	<path class="st2" d="M135.2,35.3c0.7,0,1.2,0.2,1.5,0.7c0.4,0.4,0.5,1.1,0.5,1.9c0,0.8-0.2,1.5-0.6,1.9c-0.4,0.5-0.9,0.7-1.5,0.7
		c-0.3,0-0.6-0.1-0.9-0.2c-0.3-0.1-0.5-0.3-0.7-0.6h-0.1l-0.2,0.6h-0.5v-7.1h0.8V35c0,0.4,0,0.7,0,1l0,0
		C134,35.5,134.5,35.3,135.2,35.3z M135.1,35.9c-0.5,0-0.9,0.1-1.1,0.4s-0.3,0.8-0.3,1.5s0.1,1.2,0.4,1.5c0.2,0.3,0.6,0.5,1.1,0.5
		s0.8-0.2,1-0.5s0.3-0.8,0.3-1.5s-0.1-1.1-0.3-1.5S135.6,35.9,135.1,35.9z"/>
	<path class="st2" d="M137.9,35.4h0.8l1.1,2.9c0.2,0.7,0.4,1.1,0.4,1.4l0,0c0-0.2,0.1-0.4,0.3-0.8c0.1-0.4,0.5-1.5,1.2-3.5h0.8
		l-2.2,5.7c-0.2,0.6-0.5,1-0.7,1.2c-0.3,0.2-0.6,0.4-1.1,0.4c-0.2,0-0.5,0-0.7-0.1V42c0.2,0,0.4,0.1,0.6,0.1c0.5,0,0.9-0.3,1.1-0.9
		l0.3-0.7L137.9,35.4z"/>
	<path class="st2" d="M151.3,37c0,1.1-0.3,2-0.9,2.5c-0.6,0.6-1.5,0.9-2.6,0.9h-1.9v-6.7h2.1c1,0,1.9,0.3,2.4,0.9
		C151,35.1,151.3,35.9,151.3,37z M150.5,37c0-0.9-0.2-1.5-0.7-2c-0.4-0.4-1.1-0.7-2-0.7h-1.1v5.4h0.9c0.9,0,1.6-0.2,2.1-0.7
		C150.2,38.6,150.5,37.9,150.5,37z"/>
	<path class="st2" d="M156.5,40.4h-3.7v-6.7h3.7v0.7h-3v2.2h2.8v0.7h-2.8v2.5h3V40.4z"/>
	<path class="st2" d="M158,40.4v-6.7h0.8v6h3v0.7H158z"/>
	<path class="st2" d="M162.9,40.4v-6.7h0.8v6.7H162.9z"/>
	<path class="st2" d="M168.4,36.9h2.3v3.3c-0.4,0.1-0.7,0.2-1.1,0.3c-0.4,0.1-0.8,0.1-1.3,0.1c-1,0-1.8-0.3-2.4-0.9
		c-0.6-0.6-0.8-1.4-0.8-2.5c0-0.7,0.1-1.3,0.4-1.8c0.3-0.5,0.7-0.9,1.2-1.2s1.1-0.4,1.8-0.4s1.4,0.1,2,0.4l-0.3,0.7
		c-0.6-0.3-1.2-0.4-1.7-0.4c-0.8,0-1.5,0.2-1.9,0.7c-0.5,0.5-0.7,1.2-0.7,2c0,0.9,0.2,1.6,0.7,2.1c0.4,0.5,1.1,0.7,1.9,0.7
		c0.5,0,0.9-0.1,1.4-0.2v-2.1h-1.5L168.4,36.9L168.4,36.9z"/>
	<path class="st2" d="M177.4,40.4h-0.8v-3.2h-3.5v3.2h-0.8v-6.7h0.8v2.8h3.5v-2.8h0.8V40.4z"/>
	<path class="st2" d="M181.3,40.4h-0.8v-6h-2.1v-0.7h5v0.7h-2.1L181.3,40.4L181.3,40.4z"/>
</g>
</svg>
